<svg id="Layer_1" enable-background="new 0 0 511.724 511.724" height="512" viewBox="0 0 511.724 511.724" width="512" xmlns="http://www.w3.org/2000/svg"><g><g><g fill="#ffe66b"><path d="m403.428 93.704c5.094-5.919 4.419-14.84-1.51-19.925-43.246-37.097-98.486-57.527-155.545-57.527-48.18 0-94.765 14.44-134.125 41.155-3.533-14.976-26.402-13.541-27.861 1.911l-2.613 27.667c-.723 7.53 5.218 14.681 12.758 15.393l27.673 2.613c14.322 1.363 21.208-18.385 8.769-26.074 34.088-22.344 74.076-34.405 115.399-34.405 50.293 0 98.98 18.006 137.094 50.7 5.929 5.086 14.866 4.411 19.961-1.508z"/><path d="m499.293 227.382-21.852-17.176c-6.226-4.895-15.582-3.629-20.255 2.842l-16.814 21.382c-8.805 11.197 3.468 27.287 16.658 21.713-.415 91.236-61.932 174.043-149.323 200.59-17.282 5.25-8.523 32.129 8.242 27.035 100.624-30.567 170.904-127.042 169.366-232.157 14.564 5.778 26.413-14.455 13.978-24.229z"/><path d="m189.733 462.352-11.691-24.308c-5.672-11.793-25.818-9.446-26.87 5.114-82.927-41.902-129.074-136.3-111.771-227.506 3.406-17.961-24.411-23.205-27.815-5.257-19.933 105.101 34.758 214 131.376 260.228-11.976 10.454 1.445 30.087 15.456 23.354l25.051-12.043c6.203-2.814 10.539-11.486 6.264-19.582z"/></g><g><path d="m152.34 258.694c-.109 65.888 52.653 122.396 78.174 145.87 7.646 7.033 19.381 7.051 27.05.042 25.597-23.397 78.549-79.75 78.657-145.64.109-65.888-52.653-122.396-78.174-145.87-7.646-7.033-19.381-7.051-27.05-.042-25.597 23.397-78.548 79.75-78.657 145.64z" fill="#b8e09d"/><path d="m258.047 113.096c-7.646-7.033-19.381-7.051-27.05-.042-.49.448-.993.912-1.502 1.383 26.011 24.232 76.833 79.861 76.726 144.529-.107 64.629-51.049 120.079-77.155 144.257.491.457.976.907 1.448 1.341 7.646 7.033 19.382 7.051 27.05.042 25.598-23.397 78.549-79.75 78.657-145.64.108-65.888-52.653-122.396-78.174-145.87z" fill="#a4d485"/></g></g><g><path d="m93.826 109.844 27.668 2.613c16.56 1.573 28.927-17.113 21.012-31.908 72.621-44.469 172.079-35.881 236.078 20.355 21.131 18.129 49.469-14.59 28.216-32.817-79.276-69.74-203.325-78.897-291.835-21.422-12.034-13.855-36.315-6.361-38.045 11.948l-2.612 27.654c-1.111 11.566 7.963 22.486 19.518 23.577zm-4.585-22.155 2.613-27.667c.657-6.959 11.507-7.626 13.095-.894 1.188 5.035 7.232 7.387 11.512 4.483 83.559-58.406 204.076-51.491 280.573 15.861 6.373 5.465-2.276 15.541-8.685 10.047-71.195-62.639-182.847-69.91-261.487-16.875-4.515 2.958-4.424 9.814.168 12.652 5.481 3.388 2.443 12.847-4.12 12.228l-27.673-2.614c-3.871-.86-5.869-3.267-5.996-7.221z"/><path d="m503.928 221.485-21.852-17.175c-9.434-7.418-23.767-5.458-30.87 4.209l-16.729 21.275c-10.198 12.969-1.496 33.054 14.825 34.847-1.942 39.691-16.105 79.013-40.334 111.579-25.98 34.922-62.717 60.967-103.44 73.338-25.875 7.861-13.588 49.344 12.602 41.387 98.805-28.617 173.812-128.075 174.655-230.958 18.443-2.107 25.83-26.958 11.143-38.502zm-7.966 20.045c-.488.848-3.161 4.98-7.881 3.11-4.887-1.942-10.343 1.825-10.265 7.081.721 49.239-15.237 98.783-44.934 139.505-29.708 40.74-72.011 71.057-119.114 85.366-7.276 2.21-11.311-10.425-3.882-12.682 90.621-27.529 154.212-112.952 154.644-207.732.025-5.291-5.561-8.993-10.42-6.943-5.876 2.489-11.893-5.018-7.843-10.169l16.813-21.382c2.288-2.886 6.337-4.247 9.726-1.581l21.852 17.176c3.866 3.037 1.975 7.083 1.304 8.251z"/><path d="m184.801 434.792c-6.965-14.477-28.983-15.626-37.735-2.322-74.132-40.373-117.077-132.733-100.294-215.42 5.146-27.143-37.411-35.184-42.553-8.052-13.773 70.659 6.784 147.767 52.786 203.285 5.952 7.257 17.821-1.929 11.596-9.515-21.307-25.969-37.137-56.891-45.777-89.421-8.828-33.233-10.165-68.35-3.867-101.554 1.5-7.929 14.597-5.55 13.078 2.462-18.745 91.957 31.414 194.404 115.754 235.597 4.703 2.374 10.484-.896 10.863-6.153.428-5.926 9.927-8.023 12.631-2.405l11.69 24.308c1.567 3.245.892 7.821-2.755 9.573l-25.049 12.042c-6.186 2.971-12.575-6.32-7.276-10.944 3.995-3.488 3.09-10.127-1.694-12.416-18.258-8.735-35.336-19.983-50.76-33.429-7.076-6.167-17.254 4.859-9.857 11.307 14.272 12.441 29.877 23.12 46.484 31.817-6.41 17.465 12.8 35.259 29.602 27.184l24.986-12.012c11.018-5.065 15.307-19.105 9.782-29.738z"/><path d="m343.721 258.979c.051-30.748-10.696-62.661-31.941-94.854-5.17-7.834-17.924.072-12.52 8.262 64.736 92.917 8.854 175.35-46.757 226.685-4.83 4.413-12.1 4.4-16.912-.026-22.812-20.981-75.856-76.657-75.751-140.338.104-63.683 53.336-119.202 76.218-140.117 4.826-4.413 12.099-4.401 16.911.026 7.903 7.271 15.532 15.051 22.674 23.126 6.218 7.03 17.738-2.587 11.236-9.938-7.481-8.459-15.474-16.61-23.755-24.229-10.586-9.736-26.573-9.76-37.187-.058-71.717 66.157-112.217 152.237-50.419 244.091 16.589 25.642 36.302 45.953 49.918 58.476 10.429 9.593 26.728 9.618 37.187.058 13.656-12.483 33.437-32.735 50.11-58.327 20.512-31.481 30.938-62.716 30.988-92.837z"/><path d="m244.087 375.511c4.085-.386 7.505-3.07 7.513-7.488l.082-49.282 53.981-53.882c6.643-6.631-3.652-17.548-10.598-10.616l-43.348 43.269.076-45.912 33.327-33.266c6.643-6.631-3.65-17.547-10.598-10.616l-22.694 22.653.115-69.771c.016-9.802-14.984-9.826-15-.024l-.115 69.776-22.621-22.722c-6.623-6.651-17.553 3.628-10.631 10.583l33.217 33.364-.076 45.915-43.206-43.398c-6.623-6.651-17.554 3.629-10.631 10.583l53.802 54.04-.082 49.283c-.007 4.141 3.346 7.504 7.487 7.511z"/></g></g></svg>