<svg id="Icon_Set" height="512" viewBox="0 0 256 256" width="512" xmlns="http://www.w3.org/2000/svg"><g><g><g><g><path d="m168.657 129.5c14.096-12.071 22.772-30.29 21.829-50.512-1.472-31.556-26.973-57.488-58.503-59.441-36.353-2.252-66.539 26.565-66.539 62.432 0 19.022 8.501 36.048 21.899 47.521-38.77 0-70.2 31.429-70.2 70.2v24.02c0 7.102 5.757 12.859 12.859 12.859h195.994c7.102 0 12.859-5.757 12.859-12.859v-24.02c.001-38.771-31.428-70.2-70.198-70.2z" fill="#5fcdff"/></g><g><path d="m103.853 129.495c-19.392 0-36.936 7.858-49.637 20.559-12.701 12.712-20.559 30.266-20.559 49.648v24.015c0 7.11 5.756 12.866 12.855 12.866h-16.508c-7.099 0-12.855-5.756-12.855-12.866v-24.015c0-19.381 7.858-36.936 20.559-49.648 12.701-12.701 30.244-20.559 49.637-20.559-13.394-11.468-21.902-28.494-21.902-47.512 0-35.868 30.189-64.693 66.542-62.436 1.453.088 2.884.231 4.303.418-30.662 4.017-54.336 30.255-54.336 62.018-.001 19.018 8.507 36.044 21.901 47.512z" fill="#73d7f9"/></g><g><path d="m238.851 199.702v24.015c0 7.11-5.756 12.866-12.855 12.866h-16.509c7.099 0 12.855-5.756 12.855-12.866v-24.015c0-38.774-31.422-70.207-70.195-70.207 14.099-12.062 22.771-30.288 21.825-50.506-1.398-30.101-24.675-55.095-54.193-59.024 3.962-.528 8.045-.671 12.205-.418 31.532 1.948 57.032 27.889 58.496 59.443.946 20.218-7.726 38.444-21.825 50.506 38.774-.001 70.196 31.432 70.196 70.206z" fill="#30b6ff"/></g></g></g><g fill="#5f266d"><path d="m177.851 126.067c11.463-12.908 17.45-29.689 16.63-47.266-1.566-33.573-28.653-61.165-62.251-63.247-39.087-2.429-70.786 28.697-70.786 66.424 0 16.356 6.003 31.988 16.715 44.087-36.597 4.537-65.016 35.829-65.016 73.634v24.021c0 9.296 7.563 16.859 16.859 16.859h195.994c9.296 0 16.859-7.563 16.859-16.859v-24.021c.001-37.802-28.411-69.092-65.004-73.632zm57.005 97.653c0 4.885-3.974 8.859-8.859 8.859h-195.994c-4.885 0-8.859-3.974-8.859-8.859v-24.021c0-36.502 29.697-66.199 66.2-66.199 3.701 0 5.419-4.626 2.602-7.038-13.029-11.157-20.501-27.371-20.501-44.483 0-32.56 26.362-58.557 58.519-58.557 31.627 0 57.12 25.578 58.527 55.752.849 18.204-6.6 35.44-20.435 47.288-2.811 2.406-1.108 7.038 2.602 7.038 36.502 0 66.2 29.697 66.2 66.199v24.021z"/><path d="m147.536 206.336h-5c-2.209 0-4 1.791-4 4s1.791 4 4 4h5c2.209 0 4-1.791 4-4s-1.791-4-4-4z"/><path d="m203.536 206.336h-41c-2.209 0-4 1.791-4 4s1.791 4 4 4h41c2.209 0 4-1.791 4-4s-1.791-4-4-4z"/></g></g></svg>