<svg id="Capa_1" enable-background="new 0 0 512 512" height="512" viewBox="0 0 512 512" width="512" xmlns="http://www.w3.org/2000/svg"><g><path d="m309.334 494.683c-16.583-16.583-25.899-39.074-25.899-62.525v-128.964c-1.274-.213-2.514-.545-3.709-1.041-6.937-2.876-10.999-10.35-16.226-15.578-2.125-2.125-4.622-4.058-7.03-6.069-1.205 3.343-2.711 6.466-5.143 8.898-5.227 5.228-13.65 6.178-20.587 9.055-.726.301-1.451.633-2.177.986v132.714c0 23.452-9.316 45.943-25.899 62.525l-8.289 8.289c-.564.564-.165 1.528.633 1.528h121.982c.798 0 1.197-.964.633-1.528z" fill="#dab46b"/><path d="m317.623 502.972-8.289-8.289c-16.583-16.583-25.899-39.074-25.899-62.525v-128.964c-1.274-.213-2.514-.545-3.709-1.041-6.937-2.876-10.999-10.35-16.226-15.578-2.125-2.125-4.622-4.058-7.03-6.069-.812 2.251-1.76 4.403-3.035 6.31v125.342c0 23.451 9.316 45.942 25.898 62.525 3.623 3.623 1.057 9.817-4.066 9.817h-63.859c-2.636 3.589-5.555 6.995-8.743 10.183l-8.289 8.289c-.564.564-.165 1.528.633 1.528h121.981c.797 0 1.197-.964.633-1.528z" fill="#bc9b5c"/><path d="m440.539 205.197-19.144-19.144c-1.97-1.97-3.077-4.642-3.077-7.428v-14.975c0-12.601-5.005-24.685-13.916-33.595l-4.611-4.611c-2.444-2.444-4.382-5.344-5.704-8.537l-9.816-23.699c-21.49-51.881-72.116-85.708-128.271-85.708-56.155 0-106.78 33.827-128.27 85.707l-9.816 23.699c-1.323 3.193-3.261 6.094-5.705 8.537l-4.611 4.611c-8.91 8.91-13.916 20.995-13.916 33.595v14.975c0 2.786-1.107 5.458-3.077 7.428l-19.144 19.144c-13.033 13.032-17.743 32.228-12.224 49.813l8.107 25.832c5.484 17.473 21.676 29.362 39.989 29.362.53 0 1.038.211 1.413.585l10.124 10.124c6.52 6.52 15.364 10.183 24.585 10.183h25.037c2.085 0 4.084.828 5.558 2.302l4.563 4.563c8.982 8.982 21.163 14.028 33.865 14.028h16.086v-52.544c.725-.352 1.45-.684 2.177-.986 6.937-2.876 15.359-3.827 20.587-9.055 2.432-2.432 3.938-5.555 5.143-8.898 2.408 2.011 4.904 3.944 7.03 6.069 5.227 5.227 9.29 12.701 16.226 15.578 1.195.495 2.434.828 3.709 1.041v48.794h16.086c12.702 0 24.884-5.046 33.865-14.028l4.563-4.563c1.474-1.474 3.473-2.302 5.558-2.302h25.037c9.221 0 18.064-3.663 24.584-10.183l10.124-10.124c.375-.375.883-.585 1.413-.585 18.313 0 34.506-11.889 39.989-29.362l8.107-25.832c5.52-17.584.809-36.779-12.223-49.811z" fill="#95d6a4"/><path d="m172.479 331.988c-.118 0-.236-.001-.353-.002.703.367 1.354.84 1.925 1.411l4.563 4.563c8.982 8.982 21.163 14.028 33.865 14.028h16.086v-20z" fill="#78c2a4"/><path d="m440.539 205.197-19.144-19.144c-1.97-1.97-3.077-4.642-3.077-7.428v-14.975c0-12.601-5.005-24.685-13.916-33.595l-4.611-4.611c-2.444-2.444-4.382-5.344-5.705-8.537l-9.816-23.699c-16.041-38.726-48.315-67.392-87.005-79.44 20.451 14.761 36.93 35.116 47.005 59.44l9.816 23.699c1.323 3.193 3.261 6.094 5.705 8.537l4.611 4.611c8.91 8.91 13.916 20.995 13.916 33.595v14.975c0 2.786 1.107 5.458 3.077 7.428l19.144 19.144c13.032 13.032 17.743 32.228 12.224 49.813l-8.107 25.832c-5.484 17.473-21.676 29.362-39.989 29.362-.53 0-1.039.211-1.413.585l-10.124 10.124c-6.52 6.52-15.364 10.183-24.584 10.183h-25.037c-2.084 0-4.084.828-5.558 2.302l-4.563 4.563c-2.994 2.994-6.345 5.551-9.951 7.629v26.399h16.086c12.702 0 24.884-5.046 33.866-14.028l4.563-4.563c1.474-1.474 3.473-2.302 5.558-2.302h25.037c9.221 0 18.064-3.663 24.584-10.183l10.124-10.124c.375-.375.883-.585 1.413-.585 18.313 0 34.506-11.889 39.989-29.362l8.107-25.832c5.518-17.586.807-36.781-12.225-49.813z" fill="#78c2a4"/><path d="m134.756 161.13c-5.952 7.763-5.748 17.48-7.557 24.227-1.072 4.001 1.303 8.114 5.304 9.186 4.008 1.071 8.114-1.306 9.186-5.304 1.926-7.189 1.874-14.943 4.971-18.982 2.93-3.823 10.448-5.902 17.045-9.71 6.568-3.792 12.165-9.281 16.932-9.907 3.268-.422 7.271 1.08 11.513 2.676 2.375.894 4.831 1.818 7.412 2.51 4 1.073 8.113-1.302 9.186-5.304 1.072-4.001-1.303-8.113-5.304-9.186-6.747-1.807-15.066-6.843-24.758-5.569-6.765.888-12.174 4.721-16.947 8.103-4.972 3.523-5.933 4.081-11.491 6.634-5.316 2.444-11.341 5.212-15.492 10.626z"/><path d="m302.532 49.324c-5.713-2.368-11.589-1.821-16.774-1.337-5.227.487-6.145.488-11.378 0-5.187-.483-11.062-1.031-16.773 1.338-8.143 3.377-12.292 10.922-16.565 15.194-2.929 2.929-2.928 7.678 0 10.607 2.929 2.928 7.678 2.929 10.607 0 4.579-4.581 7.909-10.371 11.704-11.945 2.274-.944 5.851-.611 9.636-.258 2.272.212 4.623.431 7.081.431s4.808-.219 7.08-.431c3.787-.352 7.362-.686 9.637.259 3.795 1.573 7.132 7.372 11.704 11.944 2.928 2.929 7.677 2.928 10.606 0 2.929-2.929 2.929-7.678-.001-10.607-4.271-4.272-8.426-11.82-16.564-15.195z"/><path d="m368.964 206.686c0 4.142 3.357 7.5 7.5 7.5s7.5-3.358 7.5-7.5c0-6.043 2.399-14.315-.969-22.456-3.277-7.919-10.697-12.069-15.196-16.571-4.501-4.501-8.663-11.924-16.571-15.197-8.142-3.368-16.426-.969-22.458-.969-4.142 0-7.499 3.358-7.499 7.5s3.358 7.5 7.501 7.5c2.374 0 4.673-.227 6.896-.446 3.804-.374 7.398-.73 9.825.275 2.278.942 4.57 3.706 6.998 6.632 1.457 1.757 2.964 3.573 4.701 5.311 4.642 4.643 10.466 8.128 11.943 11.699 1.571 3.797-.171 10.255-.171 16.722z"/><path d="m445.842 199.893-19.144-19.144c-.568-.568-.881-1.323-.881-2.125v-14.975c0-14.693-5.722-28.507-16.112-38.899l-4.61-4.61c-1.756-1.757-3.129-3.811-4.079-6.105l-9.816-23.699c-22.732-54.877-75.802-90.336-135.2-90.336-35.702 0-70.108 13.019-96.882 36.659-3.104 2.742-3.399 7.481-.658 10.586 2.742 3.104 7.48 3.4 10.586.658 24.031-21.218 54.912-32.903 86.954-32.903 53.311 0 100.939 31.825 121.342 81.077l9.815 23.698c1.708 4.123 4.174 7.814 7.331 10.972l4.61 4.61c7.557 7.558 11.719 17.605 11.719 28.292v14.975c0 4.808 1.873 9.33 5.273 12.731l19.145 19.144c11.096 11.096 15.07 27.291 10.371 42.264l-8.107 25.832c-4.524 14.419-17.72 24.107-32.833 24.107-2.535 0-4.919.987-6.717 2.782l-10.124 10.124c-5.15 5.15-11.998 7.987-19.281 7.987h-25.036c-4.104 0-7.961 1.598-10.86 4.498l-4.564 4.563c-7.629 7.629-17.772 11.831-28.562 11.831h-8.586v-33.574c4.014-.235 7.846-.802 11.281-.802 2.073 0 4.289.207 6.635.425 2.493.232 5.127.478 7.82.478 3.599 0 7.302-.438 10.906-1.933 9.037-3.747 13.716-12.264 18.658-17.203 2.929-2.929 2.929-7.678 0-10.606-2.93-2.929-7.678-2.929-10.607 0-1.889 1.89-3.554 3.918-5.163 5.879-2.875 3.503-5.591 6.813-8.633 8.074-4.45 1.845-12.004-.113-19.616-.113-2.771 0-5.443.249-8.027.49-11.517 1.074-12.736.67-20.223-8.45-3.318-4.044-4.973-5.949-8.786-9.173.636-2.065 1.32-4.335 2.13-6.289 2.606-6.282 8.726-13.859 8.726-23.831 0-4.142-3.357-7.5-7.5-7.5s-7.5 3.358-7.5 7.5c0 5.267-4.773 11.313-7.582 18.085-1.696 4.09-2.7 8.269-3.992 11.886-.033.086-.064.173-.094.261-.894 2.455-1.92 4.586-3.343 6.009-3.518 3.517-11.252 4.567-18.156 7.43-6.8 2.819-12.806 7.582-18.085 7.582-5.278 0-11.294-4.766-18.085-7.581-6.931-2.875-14.634-3.907-18.157-7.431-3.518-3.517-4.567-11.251-7.429-18.155-1.586-3.826-5.975-5.641-9.801-4.056-3.826 1.586-5.642 5.975-4.056 9.801 2.737 6.598 3.85 16.189 10.679 23.017 6.817 6.817 16.428 7.948 23.018 10.68 6.292 2.609 13.86 8.725 23.831 8.725 4.156 0 7.877-1.054 11.281-2.483v32.86h-8.585c-10.79 0-20.933-4.202-28.562-11.831l-4.563-4.563c-2.901-2.901-6.758-4.499-10.861-4.499h-25.037c-7.283 0-14.131-2.836-19.281-7.987l-10.124-10.124c-1.794-1.794-4.179-2.782-6.716-2.782-15.113 0-28.308-9.688-32.833-24.108l-8.107-25.832c-4.699-14.973-.725-31.167 10.372-42.264l19.144-19.144c3.401-3.401 5.274-7.922 5.274-12.731v-14.975c0-10.688 4.162-20.735 11.719-28.292l4.611-4.611c3.156-3.155 5.622-6.846 7.331-10.971l9.816-23.699c3.378-8.155 7.588-15.987 12.514-23.279 2.319-3.432 1.416-8.094-2.017-10.413s-8.095-1.416-10.413 2.017c-5.489 8.125-10.18 16.852-13.943 25.936l-9.816 23.698c-.951 2.295-2.323 4.349-4.079 6.105l-4.611 4.611c-10.39 10.39-16.112 24.205-16.112 38.898v14.975c0 .803-.312 1.557-.88 2.125l-19.144 19.144c-15.061 15.061-20.455 37.041-14.077 57.362l8.107 25.831c6.264 19.959 24.096 33.605 44.812 34.562l8.566 8.566c7.983 7.983 18.598 12.38 29.888 12.38h25.037c.096 0 .187.037.254.105l4.563 4.563c10.462 10.462 24.373 16.225 39.169 16.225h8.585v72.669c0 21.616-8.417 41.938-23.702 57.222l-8.289 8.289c-2.41 2.41-3.124 6-1.82 9.149s4.349 5.183 7.756 5.183h121.979c3.407 0 6.451-2.034 7.756-5.181s.592-6.738-1.819-9.15l-8.288-8.289c-15.285-15.284-23.702-35.606-23.702-57.222v-25.311c0-4.142-3.357-7.5-7.5-7.5s-7.5 3.358-7.5 7.5v25.311c0 24.239 8.93 47.106 25.231 64.842h-90.334c16.302-17.737 25.232-40.604 25.232-64.842v-127.683c1.165-.396 2.393-.774 3.662-1.164 5.62-1.729 11.99-3.688 16.905-8.603.747-.747 1.426-1.529 2.046-2.335 4.582 4.801 9.108 12.515 17.258 16.306v63.17c0 4.142 3.357 7.5 7.5 7.5s7.5-3.358 7.5-7.5v-12.359h8.586c14.796 0 28.707-5.762 39.168-16.224l4.564-4.564c.067-.067.157-.104.254-.104h25.036c11.29 0 21.904-4.397 29.889-12.38l8.566-8.566c20.716-.957 38.549-14.603 44.812-34.562l8.107-25.832c6.376-20.324.982-42.304-14.078-57.364z"/><path d="m265.936 386.717v-68.753c0-4.142-3.357-7.5-7.5-7.5-4.142 0-7.5 3.358-7.5 7.5v68.753c0 4.142 3.358 7.5 7.5 7.5s7.5-3.358 7.5-7.5z"/><path d="m246.065 423.565v8.593c0 15.476-3.23 30.351-9.6 44.209-1.73 3.764-.082 8.217 3.682 9.947 3.746 1.723 8.209.098 9.947-3.682 7.28-15.838 10.971-32.82 10.971-50.474v-8.593c0-4.142-3.357-7.5-7.5-7.5s-7.5 3.358-7.5 7.5z"/></g></svg>