<svg height="512" viewBox="0 0 512 512" width="512" xmlns="http://www.w3.org/2000/svg"><g id="filled_outline" data-name="filled outline"><path d="m353.026 137.161a53.592 53.592 0 0 0 -12.126-55.237 41.691 41.691 0 1 0 -76.823 0 53.592 53.592 0 0 0 -12.128 55.237 65.514 65.514 0 1 0 101.079 0z" fill="#91a666"/><path d="m192 368 46.523-56.861a84.9 84.9 0 0 1 65.711-31.139 84.9 84.9 0 0 1 65.224 30.549l14.542 17.451-80 72z" fill="#a3612d"/><path d="m304 400 83.39-76.873a30.283 30.283 0 0 1 39.122-4.734 30.283 30.283 0 0 1 7.581 43.161l-90.093 94.446-88 32-112-32h-72v-112l72 16 104 16z" fill="#fdc9a6"/><path d="m144 360 25.75-25.75a75.968 75.968 0 0 1 53.716-22.25 103.922 103.922 0 0 1 46.478 10.972l10.056 5.028h56a24 24 0 0 1 24 24 24 24 0 0 1 -24 24h-88z" fill="#fdc9a6"/><path d="m233.673 304.479q-5.091-.471-10.207-.479a83.417 83.417 0 0 0 -59.373 24.593l-22.645 22.645-67.713-15.048a8 8 0 0 0 -9.735 7.81v112a8 8 0 0 0 8 8h70.879l110.921 31.692a8 8 0 0 0 4.932-.173l88-32a8.007 8.007 0 0 0 3.055-2l90.093-94.446a8.063 8.063 0 0 0 .652-.776 38.281 38.281 0 0 0 -56.663-50.95l-8.267-9.922a92.621 92.621 0 0 0 -65.117-33.211v-20.3a73.511 73.511 0 0 0 51.419-116.359 61.616 61.616 0 0 0 -11.865-55.415 49.69 49.69 0 1 0 -95.109 0 61.607 61.607 0 0 0 -11.864 55.414 73.51 73.51 0 0 0 51.421 116.366v20.593a92.476 92.476 0 0 0 -60.814 31.966zm159.139 24.53c.166-.152.324-.311.476-.476a22.283 22.283 0 0 1 34.64 27.894l-88.423 92.7-83.805 30.473-109.5-31.292a8.013 8.013 0 0 0 -2.2-.308h-64v-94.027l62.265 13.837a8 8 0 0 0 7.392-2.153l25.75-25.75a67.522 67.522 0 0 1 48.059-19.907 96.42 96.42 0 0 1 42.9 10.127l10.056 5.028a7.994 7.994 0 0 0 3.578.845h56a16 16 0 0 1 0 32h-88a8 8 0 0 0 -3.151 15.353l56 24a8 8 0 0 0 8.573-1.471l23.738-21.882h2.84a32.036 32.036 0 0 0 32-32v-.118zm-83.259 54.991-7.165 6.605-15.412-6.605zm-64.58-205.15a57.6 57.6 0 0 1 13.143-36.595 8 8 0 0 0 1.374-7.76 45.59 45.59 0 0 1 10.319-46.995 8 8 0 0 0 1.634-8.7 33.691 33.691 0 1 1 62.087 0 8 8 0 0 0 1.634 8.7 45.59 45.59 0 0 1 10.319 47 8 8 0 0 0 1.374 7.76 57.507 57.507 0 0 1 -36.37 93.54v-56.487l21.657-21.656a8 8 0 0 0 -11.314-11.314l-10.343 10.343v-92.686a8 8 0 0 0 -16 0v52.687l-10.343-10.344a8 8 0 1 0 -11.314 11.314l21.657 21.656v49.374l-10.343-10.344a8 8 0 1 0 -11.314 11.314l21.657 21.656v24.487a57.593 57.593 0 0 1 -49.514-56.95zm59.261 109.15a76.7 76.7 0 0 1 59.078 27.67l8.847 10.617-9.2 8.484a32.007 32.007 0 0 0 -26.959-14.771h-54.111l-8.368-4.184a111.861 111.861 0 0 0 -20.9-7.931 76.573 76.573 0 0 1 51.613-19.885z"/></g></svg>