<svg id="Capa_1" enable-background="new 0 0 512 512" height="512" viewBox="0 0 512 512" width="512" xmlns="http://www.w3.org/2000/svg"><g><g clip-rule="evenodd" fill-rule="evenodd"><path d="m72.719 474.91h366.58c7.994 0 14.543-6.548 14.543-14.571 0-7.995-6.549-14.572-14.543-14.572h-366.58c-8.023 0-14.572 6.577-14.572 14.572 0 8.023 6.549 14.571 14.572 14.571z" fill="#005e80"/><path d="m348.156 387.539c43.94 0 79.803-35.862 79.803-79.802 0-43.941-35.862-79.803-79.803-79.803-43.97 0-79.802 35.861-79.802 79.803.001 43.94 35.833 79.802 79.802 79.802z" fill="#9be69d"/><path d="m391.134 240.493c22.141 14.175 36.825 39.007 36.825 67.244 0 44.082-35.748 79.802-79.803 79.802-28.264 0-53.068-14.685-67.243-36.825 12.388 7.938 27.13 12.558 42.977 12.558 44.055 0 79.802-35.747 79.802-79.803 0-15.818-4.621-30.588-12.558-42.976z" fill="#6fd7a3"/><path d="m255.995 137.018c-35.379 0-64.069 151.043-64.069 186.423 0 35.407 28.69 64.098 64.069 64.098 35.408 0 64.096-28.69 64.096-64.098 0-35.38-28.689-186.423-64.096-186.423z" fill="#9be69d"/><path d="m200.204 354.966c11 19.447 31.864 32.573 55.791 32.573 35.408 0 64.096-28.69 64.096-64.098 0-35.124-28.292-184.239-63.33-186.366 22.961 44.195 39.065 135.595 39.065 162.101 0 35.407-28.69 64.096-64.097 64.096-11.454-.001-22.226-3.034-31.525-8.306z" fill="#6fd7a3"/><path d="m163.861 216.283c27.867 0 50.66 22.82 50.66 50.686v69.881c0 27.868-22.793 50.689-50.66 50.689-27.867 0-50.688-22.82-50.688-50.689v-69.88c0-27.867 22.821-50.687 50.688-50.687z" fill="#9be69d"/><path d="m185.406 221.13c17.179 8.138 29.114 25.656 29.114 45.84v69.881c0 27.868-22.793 50.689-50.66 50.689-20.185 0-37.704-11.964-45.84-29.114 6.548 3.091 13.862 4.847 21.573 4.847 27.867 0 50.66-22.82 50.66-50.688v-69.879c.001-7.714-1.729-15.027-4.847-21.576z" fill="#6fd7a3"/><path d="m114.874 132.626-26.62-40.342c-29.058 11.226-54.288 24.861-74.671 40.256-4.224 3.174-3.373 7.115-.368 10.036l28.349 25.967c4.536 4.195 6.832 4.279 12.048.709 15.507-10.519 35.493-19.137 58.201-27.697 5.017-1.9 5.924-4.564 3.061-8.929z" fill="#ff4255"/><path d="m397.115 132.626 26.647-40.342c29.03 11.226 54.289 24.861 74.672 40.256 4.225 3.174 3.374 7.115.368 10.036l-28.349 25.967c-4.536 4.195-6.832 4.279-12.077.709-15.479-10.519-35.464-19.137-58.172-27.697-5.016-1.9-5.923-4.564-3.089-8.929z" fill="#ff4255"/><path d="m95.681 115.614c45.075-12.897 100.355-21.205 160.313-21.205s115.267 8.308 160.313 21.205c5.897 1.674 8.164 1.164 11.736-4.193l22.34-33.878c2.976-4.339 1.502-7.626-3.118-9.241-62.283-21.857-125.304-31.185-191.271-31.185-65.939 0-128.988 9.327-191.271 31.185-4.621 1.615-6.067 4.902-3.09 9.241l22.339 33.878c3.573 5.357 5.841 5.867 11.709 4.193z" fill="#ff8187"/></g><path d="m215.683 363.187c4.648 4.705 10.121 8.618 16.187 11.481 7.286 3.43 15.479 5.358 24.125 5.358 15.62 0 29.766-6.322 40.029-16.556 10.234-10.263 16.555-24.408 16.555-40.029 0-10.46-2.636-31.608-7.285-55.989-1.616-8.419-3.459-17.18-5.5-26.023-.085-.256-.142-.482-.17-.736-2.919-12.475-6.266-25.091-9.978-36.939-1.219-3.941.992-8.138 4.933-9.384 3.941-1.219 8.136.992 9.383 4.933 2.893 9.327 5.614 19.137 8.052 28.973 4.082-1.871 8.335-3.43 12.757-4.65 7.513-2.068 15.338-3.203 23.388-3.203 24.098 0 45.926 9.782 61.716 25.572 15.819 15.818 25.57 37.646 25.57 61.744 0 24.096-9.751 45.924-25.57 61.714-14.146 14.148-33.111 23.474-54.232 25.261v43.572h83.658c6.066 0 11.595 2.465 15.564 6.463 3.997 3.997 6.492 9.524 6.492 15.592 0 6.066-2.495 11.595-6.492 15.593-3.969 3.996-9.497 6.464-15.564 6.464h-366.582c-6.067 0-11.595-2.468-15.592-6.464-3.997-3.998-6.464-9.526-6.464-15.593s2.467-11.595 6.464-15.592c3.997-3.998 9.525-6.463 15.592-6.463h83.629v-43.742c-13.013-1.675-24.721-7.712-33.594-16.586-10.546-10.546-17.066-25.088-17.066-41.105v-69.883c0-16.017 6.52-30.559 17.066-41.105s25.089-17.066 41.106-17.066c14.288 0 27.413 5.215 37.562 13.835 6.066-23.361 13.551-46.068 21.999-62.908 9.186-18.312 20.071-30.19 32.573-30.19 7.314 0 13.975 3.884 20.071 10.716 5.612 6.321 10.914 15.449 15.79 26.364 1.672 3.77 0 8.192-3.771 9.866-3.77 1.701-8.193 0-9.894-3.772-4.252-9.496-8.731-17.319-13.324-22.508-3.232-3.6-6.237-5.67-8.873-5.67-5.925 0-12.559 8.591-19.22 21.857-9.101 18.143-17.123 44.139-23.388 70.135 5.471 8.874 8.646 19.307 8.646 30.446v69.881c.002 9.467-2.295 18.427-6.348 26.336zm232.517-268.719c10.376 4.763 20.213 9.864 29.454 15.279 11.595 6.803 22.169 14.089 31.581 21.772 3.714 3.006 3.657 8.646 0 11.624l-39.489 36.146c-2.638 2.438-6.691 2.635-9.554.48-4.849-3.656-9.98-7.03-15.224-10.12-3.544-2.068-4.734-6.662-2.665-10.206 2.098-3.572 6.662-4.762 10.234-2.664 3.968 2.324 7.853 4.762 11.622 7.37l28.804-26.364c-7.06-5.273-14.686-10.347-22.878-15.167-9.355-5.472-19.447-10.659-30.248-15.508l-9.837 14.913c-1.814 2.721-5.245 4.023-8.505 3.004-2.834-.906-5.697-1.785-8.646-2.664l-8.391 12.727c5.584 1.957 11.142 4.055 16.641 6.294 3.798 1.559 5.642 5.953 4.054 9.752-1.56 3.827-5.925 5.642-9.752 4.083-3.827-1.588-7.852-3.12-12.049-4.651-4.337-1.559-8.589-3.004-12.757-4.336-4.733-1.502-6.718-7.116-3.997-11.255l11.057-16.726c-16.783-4.252-34.841-7.766-53.92-10.433-27.414-3.826-56.925-5.924-87.74-5.924s-60.327 2.098-87.712 5.924c-19.079 2.667-37.137 6.181-53.92 10.433l11.028 16.726c2.722 4.111.794 9.753-3.969 11.255-14.373 4.592-27.583 9.753-39.405 15.478-10.518 5.075-20.865 10.999-30.22 18.059-2.807 2.127-6.86 2.014-9.554-.48l-39.49-36.146c-3.657-2.978-3.685-8.618 0-11.624 2.948-2.382 5.925-4.706 8.958-6.917 3.061-2.268 6.265-4.506 9.554-6.69 3.43-2.297 8.08-1.332 10.375 2.099 2.268 3.459 1.332 8.107-2.126 10.376-3.572 2.381-7.031 4.848-10.489 7.398l28.803 26.364c8.136-5.642 17.406-10.97 27.697-15.932 9.752-4.705 20.468-9.101 32.035-13.097l-8.42-12.757c-2.75.822-5.471 1.643-8.165 2.494-3.204 1.275-6.974.17-8.958-2.834l-9.866-14.941c-4.706 2.126-9.383 4.366-14.004 6.72-3.685 1.842-8.193.367-10.064-3.316-1.842-3.687-.368-8.194 3.317-10.065 4.139-2.068 8.249-4.054 12.417-5.952l-12.728-19.281c-2.608-3.939-.908-9.383 3.572-11.112 28.576-11.028 60.695-19.759 95.253-25.684 33.367-5.697 69.058-8.788 106.081-8.788 37.051 0 72.715 3.091 106.082 8.788 34.416 5.897 66.422 14.571 94.912 25.543 4.649 1.53 6.662 7.114 3.912 11.253zm-27.612 14.627 22.651-34.303c-25.372-9.127-53.495-16.47-83.687-21.631-32.459-5.555-67.301-8.561-103.558-8.561-36.258 0-71.071 3.006-103.559 8.561-30.163 5.161-58.286 12.504-83.658 21.631l22.623 34.303c24.437-7.399 49.554-12.559 74.813-16.102 28.236-3.941 58.427-6.096 89.781-6.096s61.574 2.154 89.781 6.096c25.289 3.543 50.377 8.702 74.813 16.102zm-76.457-43.969c4.054.736 6.776 4.621 6.039 8.674-.737 4.083-4.622 6.776-8.675 6.04-11.878-2.127-25.458-3.828-40.284-5.019-14.146-1.105-29.342-1.73-45.216-1.73-15.847 0-31.07.625-45.217 1.73-14.827 1.19-28.377 2.892-40.284 5.019-4.053.736-7.937-1.957-8.646-6.04-.737-4.053 1.956-7.938 6.01-8.674 12.672-2.269 26.761-4.054 41.758-5.245 14.628-1.162 30.22-1.785 46.379-1.785 16.158 0 31.779.623 46.407 1.785 14.997 1.191 29.057 2.976 41.729 5.245zm-28.576 178.06c1.617 7.286 3.119 14.485 4.452 21.459 4.847 25.373 7.569 47.598 7.569 58.796 0 17.605-6.322 33.708-16.868 46.152 4.394 2.665 9.071 4.876 13.976 6.55 7.343 2.521 15.224 3.883 23.473 3.883 19.958 0 38.045-8.078 51.113-21.178 13.098-13.067 21.177-31.154 21.177-51.111 0-19.959-8.079-38.045-21.177-51.114-13.068-13.097-31.155-21.176-51.113-21.176-6.775 0-13.268.906-19.39 2.607-4.594 1.276-9.016 2.978-13.212 5.132zm-15.988 137.067c-10.205 7.853-22.594 12.984-36.06 14.402v43.629h77.138v-43.572c-7.201-.625-14.147-2.099-20.752-4.366-7.285-2.495-14.089-5.897-20.326-10.093zm-128.222 58.031h77.166v-43.629c-8.165-.879-15.904-3.091-23.048-6.464-6.775-3.203-12.955-7.429-18.37-12.503-9.271 10.319-21.942 17.065-35.748 18.853zm22.991-201.817c-7.825-7.824-18.626-12.671-30.476-12.671-11.878 0-22.651 4.847-30.503 12.671-7.824 7.825-12.672 18.625-12.672 30.503v69.881c0 11.878 4.848 22.68 12.672 30.503 7.824 7.825 18.626 12.673 30.503 12.673 11.481 0 22.367-4.565 30.476-12.673 7.824-7.823 12.7-18.625 12.7-30.503v-69.881c0-11.878-4.876-22.678-12.7-30.503zm-121.617 230.93h366.58c1.928 0 3.686-.793 4.961-2.068 1.304-1.277 2.098-3.062 2.098-4.99 0-1.929-.794-3.687-2.098-4.989-1.275-1.275-3.033-2.07-4.961-2.07-122.212 0-244.396 0-366.58 0-1.928 0-3.686.795-4.99 2.07-1.276 1.303-2.07 3.061-2.07 4.989s.794 3.713 2.07 4.99c1.276 1.275 3.062 2.068 4.99 2.068z"/></g></svg>